<svg xmlns="http://www.w3.org/2000/svg" xmlns:xlink="http://www.w3.org/1999/xlink" width="500" zoomAndPan="magnify" viewBox="0 0 375 374.999991" height="500" preserveAspectRatio="xMidYMid meet" version="1.0"><defs><g/><clipPath id="f1c7378f04"><rect x="0" width="167" y="0" height="313"/></clipPath></defs><rect x="-37.5" width="450" fill="#ffffff" y="-37.499999" height="449.999989" fill-opacity="1"/><rect x="-37.5" width="450" fill="#1f1f1f" y="-37.499999" height="449.999989" fill-opacity="1"/><g transform="matrix(1, 0, 0, 1, 101, 30)"><g clip-path="url(#f1c7378f04)"><g fill="#f6f4f0" fill-opacity="1"><g transform="translate(1.930113, 234.167829)"><g><path d="M 109.40625 -98.78125 L 109.40625 -125.34375 L 25 -125.34375 L 25 -155.03125 L 138.78125 -155.03125 L 138.78125 -29.375 L 159.734375 -29.375 L 159.734375 0 L 113.46875 0 L 110.34375 -16.5625 L 109.40625 -16.5625 C 106.90625 -11.976562 101.898438 -8.019531 94.390625 -4.6875 C 86.890625 -1.351562 77.515625 0.3125 66.265625 0.3125 C 47.929688 0.3125 33.863281 -4.53125 24.0625 -14.21875 C 14.269531 -23.90625 9.375 -36.253906 9.375 -51.265625 C 9.375 -66.890625 15.207031 -78.710938 26.875 -86.734375 C 38.550781 -94.765625 54.179688 -98.78125 73.765625 -98.78125 Z M 109.40625 -72.203125 L 78.140625 -72.203125 C 71.472656 -72.203125 65.742188 -71.472656 60.953125 -70.015625 C 56.160156 -68.554688 52.253906 -66.734375 49.234375 -64.546875 C 46.210938 -62.359375 44.023438 -59.859375 42.671875 -57.046875 C 41.316406 -54.234375 40.640625 -51.472656 40.640625 -48.765625 C 40.640625 -43.347656 42.359375 -38.863281 45.796875 -35.3125 C 49.234375 -31.769531 53.453125 -29.269531 58.453125 -27.8125 C 63.453125 -26.351562 68.972656 -25.882812 75.015625 -26.40625 C 81.054688 -26.925781 86.578125 -28.382812 91.578125 -30.78125 C 96.585938 -33.1875 100.8125 -36.578125 104.25 -40.953125 C 107.6875 -45.328125 109.40625 -50.535156 109.40625 -56.578125 Z M 109.40625 -72.203125 "/></g></g></g></g></g></svg>