<svg xmlns="http://www.w3.org/2000/svg" xmlns:xlink="http://www.w3.org/1999/xlink" width="500" zoomAndPan="magnify" viewBox="0 0 375 374.999991" height="500" preserveAspectRatio="xMidYMid meet" version="1.0"><defs><g/><clipPath id="5b73bd788f"><rect x="0" width="230" y="0" height="65"/></clipPath></defs><rect x="-37.5" width="450" fill="#ffffff" y="-37.499999" height="449.999989" fill-opacity="1"/><rect x="-37.5" width="450" fill="#1f1f1f" y="-37.499999" height="449.999989" fill-opacity="1"/><g transform="matrix(1, 0, 0, 1, 72, 155)"><g clip-path="url(#5b73bd788f)"><g fill="#f6f4f0" fill-opacity="1"><g transform="translate(0.257189, 48.268595)"><g><path d="M 22.5 -20.3125 L 22.5 -25.78125 L 5.140625 -25.78125 L 5.140625 -31.890625 L 28.546875 -31.890625 L 28.546875 -6.046875 L 32.859375 -6.046875 L 32.859375 0 L 23.34375 0 L 22.703125 -3.40625 L 22.5 -3.40625 C 21.988281 -2.46875 20.960938 -1.65625 19.421875 -0.96875 C 17.878906 -0.28125 15.945312 0.0625 13.625 0.0625 C 9.851562 0.0625 6.957031 -0.929688 4.9375 -2.921875 C 2.925781 -4.921875 1.921875 -7.460938 1.921875 -10.546875 C 1.921875 -13.753906 3.117188 -16.179688 5.515625 -17.828125 C 7.921875 -19.484375 11.140625 -20.3125 15.171875 -20.3125 Z M 22.5 -14.859375 L 16.078125 -14.859375 C 14.703125 -14.859375 13.519531 -14.707031 12.53125 -14.40625 C 11.550781 -14.101562 10.75 -13.726562 10.125 -13.28125 C 9.5 -12.832031 9.046875 -12.316406 8.765625 -11.734375 C 8.492188 -11.148438 8.359375 -10.582031 8.359375 -10.03125 C 8.359375 -8.914062 8.710938 -7.992188 9.421875 -7.265625 C 10.128906 -6.535156 10.992188 -6.019531 12.015625 -5.71875 C 13.046875 -5.414062 14.179688 -5.316406 15.421875 -5.421875 C 16.671875 -5.535156 17.804688 -5.835938 18.828125 -6.328125 C 19.859375 -6.828125 20.726562 -7.523438 21.4375 -8.421875 C 22.144531 -9.316406 22.5 -10.390625 22.5 -11.640625 Z M 22.5 -14.859375 "/></g></g></g><g fill="#f6f4f0" fill-opacity="1"><g transform="translate(34.073467, 48.268595)"><g><path d="M 9.0625 -22.5625 C 9.144531 -21.75 9.632812 -21.109375 10.53125 -20.640625 C 11.4375 -20.171875 12.566406 -19.753906 13.921875 -19.390625 C 15.273438 -19.023438 16.722656 -18.640625 18.265625 -18.234375 C 19.804688 -17.828125 21.238281 -17.257812 22.5625 -16.53125 C 23.894531 -15.800781 25 -14.84375 25.875 -13.65625 C 26.757812 -12.476562 27.203125 -10.945312 27.203125 -9.0625 C 27.203125 -7.90625 26.972656 -6.769531 26.515625 -5.65625 C 26.066406 -4.539062 25.347656 -3.539062 24.359375 -2.65625 C 23.378906 -1.78125 22.109375 -1.0625 20.546875 -0.5 C 18.984375 0.0507812 17.109375 0.328125 14.921875 0.328125 C 13.160156 0.328125 11.519531 0.0625 10 -0.46875 C 8.476562 -1.007812 7.140625 -1.757812 5.984375 -2.71875 C 4.828125 -3.6875 3.894531 -4.820312 3.1875 -6.125 C 2.476562 -7.4375 2.054688 -8.867188 1.921875 -10.421875 L 8.546875 -10.421875 C 8.679688 -9.773438 8.882812 -9.128906 9.15625 -8.484375 C 9.4375 -7.835938 9.84375 -7.257812 10.375 -6.75 C 10.914062 -6.238281 11.59375 -5.832031 12.40625 -5.53125 C 13.21875 -5.226562 14.203125 -5.078125 15.359375 -5.078125 C 16.773438 -5.078125 17.878906 -5.238281 18.671875 -5.5625 C 19.472656 -5.882812 20.066406 -6.257812 20.453125 -6.6875 C 20.835938 -7.113281 21.070312 -7.507812 21.15625 -7.875 C 21.238281 -8.238281 21.28125 -8.460938 21.28125 -8.546875 C 21.363281 -9.960938 20.976562 -11.015625 20.125 -11.703125 C 19.269531 -12.390625 18.164062 -12.9375 16.8125 -13.34375 C 15.457031 -13.75 13.988281 -14.085938 12.40625 -14.359375 C 10.820312 -14.640625 9.34375 -15.082031 7.96875 -15.6875 C 6.601562 -16.289062 5.457031 -17.148438 4.53125 -18.265625 C 3.613281 -19.378906 3.15625 -20.921875 3.15625 -22.890625 C 3.15625 -24.046875 3.359375 -25.160156 3.765625 -26.234375 C 4.171875 -27.304688 4.8125 -28.269531 5.6875 -29.125 C 6.570312 -29.976562 7.695312 -30.660156 9.0625 -31.171875 C 10.4375 -31.691406 12.085938 -31.953125 14.015625 -31.953125 C 15.597656 -31.953125 17.117188 -31.757812 18.578125 -31.375 C 20.035156 -30.988281 21.320312 -30.398438 22.4375 -29.609375 C 23.550781 -28.816406 24.441406 -27.804688 25.109375 -26.578125 C 25.773438 -25.359375 26.109375 -23.9375 26.109375 -22.3125 L 19.671875 -22.3125 C 19.585938 -22.820312 19.4375 -23.320312 19.21875 -23.8125 C 19.007812 -24.3125 18.703125 -24.753906 18.296875 -25.140625 C 17.890625 -25.523438 17.351562 -25.84375 16.6875 -26.09375 C 16.019531 -26.351562 15.191406 -26.503906 14.203125 -26.546875 C 13.085938 -26.597656 12.1875 -26.484375 11.5 -26.203125 C 10.820312 -25.921875 10.300781 -25.566406 9.9375 -25.140625 C 9.570312 -24.710938 9.320312 -24.257812 9.1875 -23.78125 C 9.0625 -23.3125 9.019531 -22.90625 9.0625 -22.5625 Z M 9.0625 -22.5625 "/></g></g></g><g fill="#f6f4f0" fill-opacity="1"><g transform="translate(62.232252, 48.268595)"><g><path d="M 16.78125 -25.78125 C 15.238281 -25.78125 13.910156 -25.660156 12.796875 -25.421875 C 11.679688 -25.191406 10.769531 -24.734375 10.0625 -24.046875 C 9.351562 -23.359375 8.828125 -22.367188 8.484375 -21.078125 C 8.140625 -19.796875 7.96875 -18.128906 7.96875 -16.078125 C 7.96875 -13.710938 8.171875 -11.84375 8.578125 -10.46875 C 8.984375 -9.101562 9.5625 -8.085938 10.3125 -7.421875 C 11.0625 -6.765625 11.984375 -6.347656 13.078125 -6.171875 C 14.171875 -6.003906 15.40625 -5.921875 16.78125 -5.921875 C 17.851562 -5.921875 18.835938 -5.960938 19.734375 -6.046875 C 20.640625 -6.128906 21.445312 -6.332031 22.15625 -6.65625 C 22.863281 -6.976562 23.460938 -7.457031 23.953125 -8.09375 C 24.441406 -8.738281 24.835938 -9.617188 25.140625 -10.734375 L 31.3125 -10.734375 C 30.882812 -8.378906 30.164062 -6.484375 29.15625 -5.046875 C 28.144531 -3.609375 26.972656 -2.503906 25.640625 -1.734375 C 24.316406 -0.960938 22.882812 -0.457031 21.34375 -0.21875 C 19.800781 0.0078125 18.28125 0.125 16.78125 0.125 C 15.0625 0.125 13.320312 -0.046875 11.5625 -0.390625 C 9.8125 -0.734375 8.21875 -1.445312 6.78125 -2.53125 C 5.34375 -3.625 4.171875 -5.234375 3.265625 -7.359375 C 2.367188 -9.484375 1.921875 -12.300781 1.921875 -15.8125 C 1.921875 -19.375 2.367188 -22.203125 3.265625 -24.296875 C 4.171875 -26.398438 5.34375 -28.007812 6.78125 -29.125 C 8.21875 -30.238281 9.8125 -30.96875 11.5625 -31.3125 C 13.320312 -31.65625 15.0625 -31.828125 16.78125 -31.828125 C 18.28125 -31.828125 19.800781 -31.695312 21.34375 -31.4375 C 22.882812 -31.1875 24.332031 -30.671875 25.6875 -29.890625 C 27.039062 -29.117188 28.207031 -28.003906 29.1875 -26.546875 C 30.175781 -25.097656 30.882812 -23.171875 31.3125 -20.765625 L 25.203125 -20.765625 C 24.691406 -22.867188 23.757812 -24.226562 22.40625 -24.84375 C 21.050781 -25.46875 19.175781 -25.78125 16.78125 -25.78125 Z M 16.78125 -25.78125 "/></g></g></g><g fill="#f6f4f0" fill-opacity="1"><g transform="translate(94.505568, 48.268595)"><g><path d="M 17.03125 -31.703125 C 19.820312 -31.703125 22.191406 -31.226562 24.140625 -30.28125 C 26.085938 -29.34375 27.648438 -28.023438 28.828125 -26.328125 C 30.015625 -24.640625 30.832031 -22.632812 31.28125 -20.3125 C 31.726562 -18 31.847656 -15.492188 31.640625 -12.796875 L 8.03125 -12.796875 C 8.03125 -11.296875 8.265625 -10.070312 8.734375 -9.125 C 9.210938 -8.1875 9.859375 -7.457031 10.671875 -6.9375 C 11.484375 -6.425781 12.40625 -6.070312 13.4375 -5.875 C 14.46875 -5.6875 15.5625 -5.59375 16.71875 -5.59375 C 17.53125 -5.59375 18.363281 -5.625 19.21875 -5.6875 C 20.082031 -5.75 20.878906 -5.898438 21.609375 -6.140625 C 22.335938 -6.378906 22.988281 -6.734375 23.5625 -7.203125 C 24.144531 -7.671875 24.539062 -8.3125 24.75 -9.125 L 30.921875 -9.125 C 30.492188 -7.414062 29.835938 -5.96875 28.953125 -4.78125 C 28.078125 -3.601562 27.03125 -2.648438 25.8125 -1.921875 C 24.59375 -1.191406 23.222656 -0.65625 21.703125 -0.3125 C 20.179688 0.0195312 18.5625 0.1875 16.84375 0.1875 C 11.65625 0.1875 7.867188 -1.160156 5.484375 -3.859375 C 3.109375 -6.554688 1.921875 -10.519531 1.921875 -15.75 C 1.921875 -18.0625 2.234375 -20.191406 2.859375 -22.140625 C 3.484375 -24.097656 4.414062 -25.78125 5.65625 -27.1875 C 6.894531 -28.601562 8.457031 -29.707031 10.34375 -30.5 C 12.238281 -31.300781 14.46875 -31.703125 17.03125 -31.703125 Z M 25.65625 -18.453125 C 25.613281 -18.960938 25.503906 -19.65625 25.328125 -20.53125 C 25.160156 -21.414062 24.785156 -22.273438 24.203125 -23.109375 C 23.628906 -23.953125 22.785156 -24.671875 21.671875 -25.265625 C 20.554688 -25.867188 19.035156 -26.171875 17.109375 -26.171875 C 15.347656 -26.171875 13.890625 -25.910156 12.734375 -25.390625 C 11.578125 -24.878906 10.644531 -24.238281 9.9375 -23.46875 C 9.226562 -22.695312 8.734375 -21.859375 8.453125 -20.953125 C 8.171875 -20.054688 8.03125 -19.222656 8.03125 -18.453125 Z M 25.65625 -18.453125 "/></g></g></g><g fill="#f6f4f0" fill-opacity="1"><g transform="translate(127.228926, 48.268595)"><g><path d="M 3.21875 0 L 3.21875 -31.890625 L 9.515625 -31.890625 L 9.515625 -28.296875 L 9.640625 -28.296875 C 10.285156 -29.273438 11.429688 -30.128906 13.078125 -30.859375 C 14.734375 -31.585938 16.585938 -31.953125 18.640625 -31.953125 C 20.398438 -31.953125 22.15625 -31.78125 23.90625 -31.4375 C 25.664062 -31.09375 27.273438 -30.363281 28.734375 -29.25 C 30.191406 -28.132812 31.367188 -26.523438 32.265625 -24.421875 C 33.171875 -22.328125 33.625 -19.503906 33.625 -15.953125 L 33.625 0 L 27.203125 0 L 27.203125 -15.5 C 27.203125 -17.59375 27.03125 -19.316406 26.6875 -20.671875 C 26.34375 -22.023438 25.816406 -23.085938 25.109375 -23.859375 C 24.398438 -24.628906 23.5 -25.160156 22.40625 -25.453125 C 21.3125 -25.753906 20.035156 -25.90625 18.578125 -25.90625 C 17.078125 -25.90625 15.75 -25.753906 14.59375 -25.453125 C 13.4375 -25.160156 12.472656 -24.628906 11.703125 -23.859375 C 10.929688 -23.085938 10.34375 -22.066406 9.9375 -20.796875 C 9.53125 -19.535156 9.328125 -17.941406 9.328125 -16.015625 L 9.328125 0 Z M 3.21875 0 "/></g></g></g><g fill="#f6f4f0" fill-opacity="1"><g transform="translate(162.459567, 48.268595)"><g><path d="M 27.203125 0.0625 L 26.546875 -3.46875 L 26.359375 -3.46875 C 25.378906 -2.53125 24.019531 -1.707031 22.28125 -1 C 20.539062 -0.289062 18.75 0.0625 16.90625 0.0625 C 15.195312 0.0625 13.453125 -0.0976562 11.671875 -0.421875 C 9.890625 -0.742188 8.28125 -1.460938 6.84375 -2.578125 C 5.40625 -3.691406 4.222656 -5.296875 3.296875 -7.390625 C 2.378906 -9.492188 1.921875 -12.320312 1.921875 -15.875 C 1.921875 -19.4375 2.367188 -22.265625 3.265625 -24.359375 C 4.171875 -26.460938 5.351562 -28.070312 6.8125 -29.1875 C 8.269531 -30.300781 9.890625 -31.03125 11.671875 -31.375 C 13.453125 -31.71875 15.195312 -31.890625 16.90625 -31.890625 C 18.96875 -31.890625 20.863281 -31.566406 22.59375 -30.921875 C 24.332031 -30.285156 25.523438 -29.472656 26.171875 -28.484375 L 26.296875 -28.484375 L 26.296875 -45.015625 L 32.34375 -45.015625 L 32.34375 0.0625 Z M 17.171875 -5.984375 C 18.535156 -5.984375 19.765625 -6.066406 20.859375 -6.234375 C 21.953125 -6.410156 22.882812 -6.828125 23.65625 -7.484375 C 24.425781 -8.148438 25.015625 -9.15625 25.421875 -10.5 C 25.835938 -11.851562 26.046875 -13.710938 26.046875 -16.078125 C 26.046875 -18.171875 25.875 -19.847656 25.53125 -21.109375 C 25.1875 -22.378906 24.660156 -23.367188 23.953125 -24.078125 C 23.242188 -24.785156 22.320312 -25.253906 21.1875 -25.484375 C 20.050781 -25.722656 18.710938 -25.84375 17.171875 -25.84375 C 15.628906 -25.84375 14.300781 -25.722656 13.1875 -25.484375 C 12.070312 -25.253906 11.160156 -24.785156 10.453125 -24.078125 C 9.742188 -23.367188 9.21875 -22.378906 8.875 -21.109375 C 8.53125 -19.847656 8.359375 -18.171875 8.359375 -16.078125 C 8.359375 -13.710938 8.5625 -11.851562 8.96875 -10.5 C 9.375 -9.15625 9.953125 -8.148438 10.703125 -7.484375 C 11.453125 -6.828125 12.375 -6.410156 13.46875 -6.234375 C 14.5625 -6.066406 15.796875 -5.984375 17.171875 -5.984375 Z M 17.171875 -5.984375 "/></g></g></g><g fill="#f6f4f0" fill-opacity="1"><g transform="translate(197.047311, 48.268595)"><g><path d="M 17.03125 -31.703125 C 19.820312 -31.703125 22.191406 -31.226562 24.140625 -30.28125 C 26.085938 -29.34375 27.648438 -28.023438 28.828125 -26.328125 C 30.015625 -24.640625 30.832031 -22.632812 31.28125 -20.3125 C 31.726562 -18 31.847656 -15.492188 31.640625 -12.796875 L 8.03125 -12.796875 C 8.03125 -11.296875 8.265625 -10.070312 8.734375 -9.125 C 9.210938 -8.1875 9.859375 -7.457031 10.671875 -6.9375 C 11.484375 -6.425781 12.40625 -6.070312 13.4375 -5.875 C 14.46875 -5.6875 15.5625 -5.59375 16.71875 -5.59375 C 17.53125 -5.59375 18.363281 -5.625 19.21875 -5.6875 C 20.082031 -5.75 20.878906 -5.898438 21.609375 -6.140625 C 22.335938 -6.378906 22.988281 -6.734375 23.5625 -7.203125 C 24.144531 -7.671875 24.539062 -8.3125 24.75 -9.125 L 30.921875 -9.125 C 30.492188 -7.414062 29.835938 -5.96875 28.953125 -4.78125 C 28.078125 -3.601562 27.03125 -2.648438 25.8125 -1.921875 C 24.59375 -1.191406 23.222656 -0.65625 21.703125 -0.3125 C 20.179688 0.0195312 18.5625 0.1875 16.84375 0.1875 C 11.65625 0.1875 7.867188 -1.160156 5.484375 -3.859375 C 3.109375 -6.554688 1.921875 -10.519531 1.921875 -15.75 C 1.921875 -18.0625 2.234375 -20.191406 2.859375 -22.140625 C 3.484375 -24.097656 4.414062 -25.78125 5.65625 -27.1875 C 6.894531 -28.601562 8.457031 -29.707031 10.34375 -30.5 C 12.238281 -31.300781 14.46875 -31.703125 17.03125 -31.703125 Z M 25.65625 -18.453125 C 25.613281 -18.960938 25.503906 -19.65625 25.328125 -20.53125 C 25.160156 -21.414062 24.785156 -22.273438 24.203125 -23.109375 C 23.628906 -23.953125 22.785156 -24.671875 21.671875 -25.265625 C 20.554688 -25.867188 19.035156 -26.171875 17.109375 -26.171875 C 15.347656 -26.171875 13.890625 -25.910156 12.734375 -25.390625 C 11.578125 -24.878906 10.644531 -24.238281 9.9375 -23.46875 C 9.226562 -22.695312 8.734375 -21.859375 8.453125 -20.953125 C 8.171875 -20.054688 8.03125 -19.222656 8.03125 -18.453125 Z M 25.65625 -18.453125 "/></g></g></g></g></g></svg>